<svg xmlns="http://www.w3.org/2000/svg" version="1.1"
    width="392" height="314"
    viewBox="0 0 392 314">
  <style type="text/css" source-text-origin="source-independent defaults: shared by ASCII and UTF-8">
    svg {
        color-scheme: light dark; /* this becomes necessary if not inherited from parent elements */
        font-family: monospace;
        font-size: 15px;
    }
    text {
        stroke: none;
        text-anchor: middle;
    }
    .path {
        fill: none;
    }
    circle.filled {
        fill: inherit;
    }
    circle.hollow {
         fill: none;
    }
    svg {
        color: #000;  /* set value of 'currentColor' */
    }
    @media (prefers-color-scheme: dark) {
        svg {
            color: #FFF;  /* set value of 'currentColor' */
        }
    }
    svg {
        fill: currentColor;
        stroke: currentColor;
    }
  </style>

<g transform='translate(8,12)'>
  <g id='lines'>
    <polyline class="path" points="0,0 32,0"/>
    <polyline class="path" points="32,0 128,0"/>
    <polyline class="path" points="0,32 32,32"/>
    <polyline class="path" points="32,32 64,32"/>
    <polyline class="path" points="144,48 184,48"/>
    <polyline class="path" points="248,48 280,48"/>
    <polyline class="path" points="280,48 312,48"/>
    <polyline class="path" points="312,48 344,48"/>
    <polyline class="path" points="344,48 376,48"/>
    <polyline class="path" points="0,64 32,64"/>
    <polyline class="path" points="32,64 64,64"/>
    <polyline class="path" points="64,64 96,64"/>
    <polyline class="path" points="248,80 280,80"/>
    <polyline class="path" points="280,80 312,80"/>
    <polyline class="path" points="312,80 344,80"/>
    <polyline class="path" points="344,80 376,80"/>
    <polyline class="path" points="0,96 32,96"/>
    <polyline class="path" points="32,96 64,96"/>
    <polyline class="path" points="64,96 96,96"/>
    <polyline class="path" points="96,96 128,96"/>
    <polyline class="path" points="248,112 280,112"/>
    <polyline class="path" points="280,112 312,112"/>
    <polyline class="path" points="312,112 344,112"/>
    <polyline class="path" points="344,112 376,112"/>
    <polyline class="path" points="0,128 32,128"/>
    <polyline class="path" points="32,128 64,128"/>
    <polyline class="path" points="64,128 96,128"/>
    <polyline class="path" points="96,128 128,128"/>
    <polyline class="path" points="248,144 280,144"/>
    <polyline class="path" points="280,144 312,144"/>
    <polyline class="path" points="312,144 344,144"/>
    <polyline class="path" points="344,144 376,144"/>
    <polyline class="path" points="0,160 32,160"/>
    <polyline class="path" points="32,160 64,160"/>
    <polyline class="path" points="64,160 96,160"/>
    <polyline class="path" points="96,160 128,160"/>
    <polyline class="path" points="248,176 280,176"/>
    <polyline class="path" points="280,176 312,176"/>
    <polyline class="path" points="312,176 344,176"/>
    <polyline class="path" points="344,176 376,176"/>
    <polyline class="path" points="0,192 32,192"/>
    <polyline class="path" points="32,192 64,192"/>
    <polyline class="path" points="64,192 96,192"/>
    <polyline class="path" points="96,192 128,192"/>
    <polyline class="path" points="248,208 280,208"/>
    <polyline class="path" points="280,208 312,208"/>
    <polyline class="path" points="312,208 344,208"/>
    <polyline class="path" points="344,208 376,208"/>
    <polyline class="path" points="32,224 64,224"/>
    <polyline class="path" points="64,224 96,224"/>
    <polyline class="path" points="96,224 128,224"/>
    <polyline class="path" points="160,240 184,240"/>
    <polyline class="path" points="248,240 280,240"/>
    <polyline class="path" points="280,240 312,240"/>
    <polyline class="path" points="312,240 344,240"/>
    <polyline class="path" points="344,240 376,240"/>
    <polyline class="path" points="64,256 96,256"/>
    <polyline class="path" points="96,256 128,256"/>
    <polyline class="path" points="0,288 96,288"/>
    <polyline class="path" points="96,288 128,288"/>
    <polyline class="path" points="0,0 0,32"/>
    <polyline class="path" points="0,32 0,64"/>
    <polyline class="path" points="0,64 0,96"/>
    <polyline class="path" points="0,96 0,128"/>
    <polyline class="path" points="0,128 0,160"/>
    <polyline class="path" points="0,160 0,192"/>
    <polyline class="path" points="0,192 0,288"/>
    <polyline class="path" points="32,0 32,32"/>
    <polyline class="path" points="32,32 32,64"/>
    <polyline class="path" points="32,64 32,96"/>
    <polyline class="path" points="32,96 32,128"/>
    <polyline class="path" points="32,128 32,160"/>
    <polyline class="path" points="32,160 32,192"/>
    <polyline class="path" points="32,192 32,224"/>
    <polyline class="path" points="64,32 64,64"/>
    <polyline class="path" points="64,64 64,96"/>
    <polyline class="path" points="64,96 64,128"/>
    <polyline class="path" points="64,128 64,160"/>
    <polyline class="path" points="64,160 64,192"/>
    <polyline class="path" points="64,192 64,224"/>
    <polyline class="path" points="64,224 64,256"/>
    <polyline class="path" points="96,64 96,96"/>
    <polyline class="path" points="96,96 96,128"/>
    <polyline class="path" points="96,128 96,160"/>
    <polyline class="path" points="96,160 96,192"/>
    <polyline class="path" points="96,192 96,224"/>
    <polyline class="path" points="96,224 96,256"/>
    <polyline class="path" points="96,256 96,288"/>
    <polyline class="path" points="128,0 128,96"/>
    <polyline class="path" points="128,96 128,128"/>
    <polyline class="path" points="128,128 128,160"/>
    <polyline class="path" points="128,160 128,192"/>
    <polyline class="path" points="128,192 128,224"/>
    <polyline class="path" points="128,224 128,256"/>
    <polyline class="path" points="128,256 128,288"/>
    <polyline class="path" points="160,208 160,240"/>
    <polyline class="path" points="160,240 160,272"/>
    <polyline class="path" points="200,64 200,224"/>
    <polyline class="path" points="248,48 248,80"/>
    <polyline class="path" points="248,80 248,112"/>
    <polyline class="path" points="248,112 248,144"/>
    <polyline class="path" points="248,144 248,176"/>
    <polyline class="path" points="248,176 248,208"/>
    <polyline class="path" points="248,208 248,240"/>
    <polyline class="path" points="280,48 280,80"/>
    <polyline class="path" points="280,80 280,112"/>
    <polyline class="path" points="280,112 280,144"/>
    <polyline class="path" points="280,144 280,176"/>
    <polyline class="path" points="280,176 280,208"/>
    <polyline class="path" points="280,208 280,240"/>
    <polyline class="path" points="312,48 312,80"/>
    <polyline class="path" points="312,80 312,112"/>
    <polyline class="path" points="312,112 312,144"/>
    <polyline class="path" points="312,144 312,176"/>
    <polyline class="path" points="312,176 312,208"/>
    <polyline class="path" points="312,208 312,240"/>
    <polyline class="path" points="344,48 344,80"/>
    <polyline class="path" points="344,80 344,112"/>
    <polyline class="path" points="344,112 344,144"/>
    <polyline class="path" points="344,144 344,176"/>
    <polyline class="path" points="344,176 344,208"/>
    <polyline class="path" points="344,208 344,240"/>
    <polyline class="path" points="376,48 376,80"/>
    <polyline class="path" points="376,80 376,112"/>
    <polyline class="path" points="376,112 376,144"/>
    <polyline class="path" points="376,144 376,176"/>
    <polyline class="path" points="376,176 376,208"/>
    <polyline class="path" points="376,208 376,240"/>
  </g>
  <g id='triangles'>
    <polygon points="152,48 140,42.4 140,53.6" transform="rotate(180, 144, 48)" class="arrowhead"></polygon>
  </g>
  <g id='roundedCorners'>
    <path class="path" d="M 184,48 A 16,16 0 0,1 200,64"></path>
    <path class="path" d="M 144,192 A 16,16 0 0,1 160,208"></path>
    <path class="path" d="M 200,224 A 16,16 0 0,1 184,240"></path>
    <path class="path" d="M 160,272 A 16,16 0 0,1 144,288"></path>
  </g>
  <g id='circles'>
  </g>
  <g id='bridges'>
  </g>
  <g id='text'>
    <text x="16" y="20">0</text>
    <text x="16" y="52">1</text>
    <text x="48" y="52">0</text>
    <text x="264" y="68">0</text>
    <text x="296" y="68">5</text>
    <text x="328" y="68">4</text>
    <text x="360" y="68">3</text>
    <text x="16" y="84">2</text>
    <text x="48" y="84">1</text>
    <text x="80" y="84">0</text>
    <text x="264" y="100">1</text>
    <text x="296" y="100">0</text>
    <text x="328" y="100">5</text>
    <text x="360" y="100">4</text>
    <text x="16" y="116">3</text>
    <text x="48" y="116">2</text>
    <text x="80" y="116">1</text>
    <text x="112" y="116">0</text>
    <text x="264" y="132">2</text>
    <text x="296" y="132">1</text>
    <text x="328" y="132">0</text>
    <text x="360" y="132">5</text>
    <text x="16" y="148">4</text>
    <text x="48" y="148">3</text>
    <text x="80" y="148">2</text>
    <text x="112" y="148">1</text>
    <text x="216" y="148">=</text>
    <text x="224" y="148">&gt;</text>
    <text x="264" y="164">3</text>
    <text x="296" y="164">2</text>
    <text x="328" y="164">1</text>
    <text x="360" y="164">0</text>
    <text x="16" y="180">5</text>
    <text x="48" y="180">4</text>
    <text x="80" y="180">3</text>
    <text x="112" y="180">2</text>
    <text x="264" y="196">4</text>
    <text x="296" y="196">3</text>
    <text x="328" y="196">2</text>
    <text x="360" y="196">1</text>
    <text x="48" y="212">5</text>
    <text x="80" y="212">4</text>
    <text x="112" y="212">3</text>
    <text x="264" y="228">5</text>
    <text x="296" y="228">4</text>
    <text x="328" y="228">3</text>
    <text x="360" y="228">2</text>
    <text x="80" y="244">5</text>
    <text x="112" y="244">4</text>
    <text x="112" y="276">5</text>
</g>
</g>
</svg>
